<svg viewBox="0 0 64 64" xmlns="http://www.w3.org/2000/svg" role="img" aria-label="anime_maniacs emblem">
  <!-- Placeholder low-poly blue emblem. Replace public/logo.svg (or drop a
       public/logo.png and point the wordmark <Image> at it) with your art. -->
  <!-- Left wing -->
  <polygon points="32,16 12,12 20,30" fill="#1e3a8a" />
  <polygon points="32,16 20,30 32,34" fill="#2563eb" />
  <polygon points="12,12 20,30 8,26" fill="#3b82f6" />
  <!-- Right wing -->
  <polygon points="32,16 52,12 44,30" fill="#1d4ed8" />
  <polygon points="32,16 44,30 32,34" fill="#3b82f6" />
  <polygon points="52,12 44,30 56,26" fill="#60a5fa" />
  <!-- Central crystal body -->
  <polygon points="32,8 26,22 32,20" fill="#60a5fa" />
  <polygon points="32,8 38,22 32,20" fill="#2563eb" />
  <polygon points="26,22 32,20 32,34" fill="#3b82f6" />
  <polygon points="38,22 32,20 32,34" fill="#1d4ed8" />
  <!-- Tail / lower body -->
  <polygon points="32,34 24,44 32,52" fill="#2563eb" />
  <polygon points="32,34 40,44 32,52" fill="#1e3a8a" />
  <polygon points="24,44 32,52 28,56" fill="#3b82f6" />
  <polygon points="40,44 32,52 36,56" fill="#1d4ed8" />
</svg>
